<?xml version="1.0" encoding="UTF-8" standalone="no"?>
<!DOCTYPE svg PUBLIC "-//W3C//DTD SVG 1.1//EN"
 "http://www.w3.org/Graphics/SVG/1.1/DTD/svg11.dtd">
<!-- Generated by graphviz version 5.0.0 (20220707.1540)
 -->
<!-- Title: dependencies Pages: 1 -->
<svg width="586pt" height="247pt"
 viewBox="0.00 0.00 586.00 246.80" xmlns="http://www.w3.org/2000/svg" xmlns:xlink="http://www.w3.org/1999/xlink">
<g id="graph0" class="graph" transform="scale(1 1) rotate(0) translate(4 242.8)">
<title>dependencies</title>
<polygon fill="white" stroke="transparent" points="-4,4 -4,-242.8 582,-242.8 582,4 -4,4"/>
<text text-anchor="middle" x="289" y="-8.2" font-family="sans-serif" font-size="14.00">dependencies</text>
<g id="clust1" class="cluster">
<title>cluster_CoreModule</title>
<polygon fill="none" stroke="black" stroke-dasharray="1,5" points="8,-32.8 8,-230.8 570,-230.8 570,-32.8 8,-32.8"/>
</g>
<g id="clust2" class="cluster">
<title>cluster_CoreModule_declarations</title>
<polygon fill="none" stroke="black" points="67,-40.8 67,-92.8 505,-92.8 505,-40.8 67,-40.8"/>
</g>
<g id="clust7" class="cluster">
<title>cluster_CoreModule_exports</title>
<polygon fill="none" stroke="black" points="16,-170.8 16,-222.8 562,-222.8 562,-170.8 16,-170.8"/>
</g>
<!-- FormMessageComponent -->
<g id="node1" class="node">
<title>FormMessageComponent</title>
<polygon fill="#ffffb3" stroke="black" points="497.16,-84.8 336.84,-84.8 336.84,-48.8 497.16,-48.8 497.16,-84.8"/>
<text text-anchor="middle" x="417" y="-62.6" font-family="Times,serif" font-size="14.00">FormMessageComponent</text>
</g>
<!-- CoreModule -->
<g id="node4" class="node">
<title>CoreModule</title>
<polygon fill="#8dd3c7" stroke="black" points="301.27,-149.8 298.27,-153.8 277.27,-153.8 274.27,-149.8 214.73,-149.8 214.73,-113.8 301.27,-113.8 301.27,-149.8"/>
<text text-anchor="middle" x="258" y="-127.6" font-family="Times,serif" font-size="14.00">CoreModule</text>
</g>
<!-- FormMessageComponent&#45;&gt;CoreModule -->
<g id="edge1" class="edge">
<title>FormMessageComponent&#45;&gt;CoreModule</title>
<path fill="none" stroke="black" d="M354.15,-84.82C354.15,-102.17 354.15,-125.8 354.15,-125.8 354.15,-125.8 311.29,-125.8 311.29,-125.8"/>
<polygon fill="black" stroke="black" points="311.29,-122.3 301.29,-125.8 311.29,-129.3 311.29,-122.3"/>
</g>
<!-- HeaderComponent -->
<g id="node2" class="node">
<title>HeaderComponent</title>
<polygon fill="#ffffb3" stroke="black" points="318.75,-84.8 197.25,-84.8 197.25,-48.8 318.75,-48.8 318.75,-84.8"/>
<text text-anchor="middle" x="258" y="-62.6" font-family="Times,serif" font-size="14.00">HeaderComponent</text>
</g>
<!-- HeaderComponent&#45;&gt;CoreModule -->
<g id="edge2" class="edge">
<title>HeaderComponent&#45;&gt;CoreModule</title>
<path fill="none" stroke="black" d="M258,-84.91C258,-84.91 258,-103.79 258,-103.79"/>
<polygon fill="black" stroke="black" points="254.5,-103.79 258,-113.79 261.5,-103.79 254.5,-103.79"/>
</g>
<!-- NavComponent -->
<g id="node3" class="node">
<title>NavComponent</title>
<polygon fill="#ffffb3" stroke="black" points="179.16,-84.8 74.84,-84.8 74.84,-48.8 179.16,-48.8 179.16,-84.8"/>
<text text-anchor="middle" x="127" y="-62.6" font-family="Times,serif" font-size="14.00">NavComponent</text>
</g>
<!-- NavComponent&#45;&gt;CoreModule -->
<g id="edge3" class="edge">
<title>NavComponent&#45;&gt;CoreModule</title>
<path fill="none" stroke="black" d="M149.62,-84.82C149.62,-102.17 149.62,-125.8 149.62,-125.8 149.62,-125.8 204.54,-125.8 204.54,-125.8"/>
<polygon fill="black" stroke="black" points="204.54,-129.3 214.54,-125.8 204.54,-122.3 204.54,-129.3"/>
</g>
<!-- FormMessageComponent  -->
<g id="node5" class="node">
<title>FormMessageComponent </title>
<polygon fill="#fb8072" stroke="black" points="554.16,-214.8 389.84,-214.8 389.84,-178.8 554.16,-178.8 554.16,-214.8"/>
<text text-anchor="middle" x="472" y="-192.6" font-family="Times,serif" font-size="14.00">FormMessageComponent </text>
</g>
<!-- CoreModule&#45;&gt;FormMessageComponent  -->
<g id="edge4" class="edge">
<title>CoreModule&#45;&gt;FormMessageComponent </title>
<path fill="none" stroke="black" stroke-dasharray="5,2" d="M301.52,-137.8C356.39,-137.8 443.62,-137.8 443.62,-137.8 443.62,-137.8 443.62,-168.78 443.62,-168.78"/>
<polygon fill="black" stroke="black" points="440.13,-168.78 443.62,-178.78 447.13,-168.78 440.13,-168.78"/>
</g>
<!-- HeaderComponent  -->
<g id="node6" class="node">
<title>HeaderComponent </title>
<polygon fill="#fb8072" stroke="black" points="371.75,-214.8 246.25,-214.8 246.25,-178.8 371.75,-178.8 371.75,-214.8"/>
<text text-anchor="middle" x="309" y="-192.6" font-family="Times,serif" font-size="14.00">HeaderComponent </text>
</g>
<!-- CoreModule&#45;&gt;HeaderComponent  -->
<g id="edge5" class="edge">
<title>CoreModule&#45;&gt;HeaderComponent </title>
<path fill="none" stroke="black" stroke-dasharray="5,2" d="M273.88,-149.91C273.88,-149.91 273.88,-168.79 273.88,-168.79"/>
<polygon fill="black" stroke="black" points="270.38,-168.79 273.88,-178.79 277.38,-168.79 270.38,-168.79"/>
</g>
<!-- NavComponent  -->
<g id="node7" class="node">
<title>NavComponent </title>
<polygon fill="#fb8072" stroke="black" points="228.16,-214.8 119.84,-214.8 119.84,-178.8 228.16,-178.8 228.16,-214.8"/>
<text text-anchor="middle" x="174" y="-192.6" font-family="Times,serif" font-size="14.00">NavComponent </text>
</g>
<!-- CoreModule&#45;&gt;NavComponent  -->
<g id="edge6" class="edge">
<title>CoreModule&#45;&gt;NavComponent </title>
<path fill="none" stroke="black" stroke-dasharray="5,2" d="M221.35,-149.91C221.35,-149.91 221.35,-168.79 221.35,-168.79"/>
<polygon fill="black" stroke="black" points="217.85,-168.79 221.35,-178.79 224.85,-168.79 217.85,-168.79"/>
</g>
<!-- UiModule  -->
<g id="node8" class="node">
<title>UiModule </title>
<polygon fill="#fb8072" stroke="black" points="101.55,-214.8 24.45,-214.8 24.45,-178.8 101.55,-178.8 101.55,-214.8"/>
<text text-anchor="middle" x="63" y="-192.6" font-family="Times,serif" font-size="14.00">UiModule </text>
</g>
<!-- CoreModule&#45;&gt;UiModule  -->
<g id="edge7" class="edge">
<title>CoreModule&#45;&gt;UiModule </title>
<path fill="none" stroke="black" stroke-dasharray="5,2" d="M214.69,-137.8C164.35,-137.8 88.1,-137.8 88.1,-137.8 88.1,-137.8 88.1,-168.78 88.1,-168.78"/>
<polygon fill="black" stroke="black" points="84.6,-168.78 88.1,-178.78 91.6,-168.78 84.6,-168.78"/>
</g>
</g>
</svg>
