<?xml version="1.0" encoding="UTF-8" standalone="no"?>
<!DOCTYPE svg PUBLIC "-//W3C//DTD SVG 1.1//EN"
 "http://www.w3.org/Graphics/SVG/1.1/DTD/svg11.dtd">
<!-- Generated by graphviz version 5.0.0 (20220707.1540)
 -->
<!-- Title: dependencies Pages: 1 -->
<svg width="268pt" height="247pt"
 viewBox="0.00 0.00 268.00 246.80" xmlns="http://www.w3.org/2000/svg" xmlns:xlink="http://www.w3.org/1999/xlink">
<g id="graph0" class="graph" transform="scale(1 1) rotate(0) translate(4 242.8)">
<title>dependencies</title>
<polygon fill="white" stroke="transparent" points="-4,4 -4,-242.8 264,-242.8 264,4 -4,4"/>
<text text-anchor="middle" x="130" y="-8.2" font-family="sans-serif" font-size="14.00">dependencies</text>
<g id="clust1" class="cluster">
<title>cluster_UiModule</title>
<polygon fill="none" stroke="black" stroke-dasharray="1,5" points="8,-32.8 8,-230.8 252,-230.8 252,-32.8 8,-32.8"/>
</g>
<g id="clust4" class="cluster">
<title>cluster_UiModule_imports</title>
<polygon fill="none" stroke="black" points="136,-40.8 136,-92.8 244,-92.8 244,-40.8 136,-40.8"/>
</g>
<g id="clust2" class="cluster">
<title>cluster_UiModule_declarations</title>
<polygon fill="none" stroke="black" points="16,-40.8 16,-92.8 128,-92.8 128,-40.8 16,-40.8"/>
</g>
<g id="clust5" class="cluster">
<title>cluster_UiModule_exports</title>
<polygon fill="none" stroke="black" points="73,-170.8 73,-222.8 187,-222.8 187,-170.8 73,-170.8"/>
</g>
<!-- UiComponent -->
<g id="node1" class="node">
<title>UiComponent</title>
<polygon fill="#ffffb3" stroke="black" points="119.83,-84.8 24.17,-84.8 24.17,-48.8 119.83,-48.8 119.83,-84.8"/>
<text text-anchor="middle" x="72" y="-62.6" font-family="Times,serif" font-size="14.00">UiComponent</text>
</g>
<!-- UiModule -->
<g id="node2" class="node">
<title>UiModule</title>
<polygon fill="#8dd3c7" stroke="black" points="166.55,-149.8 163.55,-153.8 142.55,-153.8 139.55,-149.8 93.45,-149.8 93.45,-113.8 166.55,-113.8 166.55,-149.8"/>
<text text-anchor="middle" x="130" y="-127.6" font-family="Times,serif" font-size="14.00">UiModule</text>
</g>
<!-- UiComponent&#45;&gt;UiModule -->
<g id="edge1" class="edge">
<title>UiComponent&#45;&gt;UiModule</title>
<path fill="none" stroke="black" d="M106.44,-84.91C106.44,-84.91 106.44,-103.79 106.44,-103.79"/>
<polygon fill="black" stroke="black" points="102.94,-103.79 106.44,-113.79 109.94,-103.79 102.94,-103.79"/>
</g>
<!-- UiComponent  -->
<g id="node4" class="node">
<title>UiComponent </title>
<polygon fill="#fb8072" stroke="black" points="179.33,-214.8 80.67,-214.8 80.67,-178.8 179.33,-178.8 179.33,-214.8"/>
<text text-anchor="middle" x="130" y="-192.6" font-family="Times,serif" font-size="14.00">UiComponent </text>
</g>
<!-- UiModule&#45;&gt;UiComponent  -->
<g id="edge3" class="edge">
<title>UiModule&#45;&gt;UiComponent </title>
<path fill="none" stroke="black" stroke-dasharray="5,2" d="M130,-149.91C130,-149.91 130,-168.79 130,-168.79"/>
<polygon fill="black" stroke="black" points="126.5,-168.79 130,-178.79 133.5,-168.79 126.5,-168.79"/>
</g>
<!-- CanalModule -->
<g id="node3" class="node">
<title>CanalModule</title>
<polygon fill="#8dd3c7" stroke="black" points="236.21,-84.8 233.21,-88.8 212.21,-88.8 209.21,-84.8 143.79,-84.8 143.79,-48.8 236.21,-48.8 236.21,-84.8"/>
<text text-anchor="middle" x="190" y="-62.6" font-family="Times,serif" font-size="14.00">CanalModule</text>
</g>
<!-- CanalModule&#45;&gt;UiModule -->
<g id="edge2" class="edge">
<title>CanalModule&#45;&gt;UiModule</title>
<path fill="none" stroke="black" d="M155.34,-84.91C155.34,-84.91 155.34,-103.79 155.34,-103.79"/>
<polygon fill="black" stroke="black" points="151.84,-103.79 155.34,-113.79 158.84,-103.79 151.84,-103.79"/>
</g>
</g>
</svg>
