<?xml version="1.0" encoding="UTF-8" standalone="no"?>
<!DOCTYPE svg PUBLIC "-//W3C//DTD SVG 1.1//EN"
 "http://www.w3.org/Graphics/SVG/1.1/DTD/svg11.dtd">
<!-- Generated by graphviz version 5.0.0 (20220707.1540)
 -->
<!-- Title: dependencies Pages: 1 -->
<svg width="434pt" height="247pt"
 viewBox="0.00 0.00 434.00 246.80" xmlns="http://www.w3.org/2000/svg" xmlns:xlink="http://www.w3.org/1999/xlink">
<g id="graph0" class="graph" transform="scale(1 1) rotate(0) translate(4 242.8)">
<title>dependencies</title>
<polygon fill="white" stroke="transparent" points="-4,4 -4,-242.8 430,-242.8 430,4 -4,4"/>
<text text-anchor="middle" x="213" y="-8.2" font-family="sans-serif" font-size="14.00">dependencies</text>
<g id="clust1" class="cluster">
<title>cluster_PageNotFoundModule</title>
<polygon fill="none" stroke="black" stroke-dasharray="1,5" points="8,-32.8 8,-230.8 418,-230.8 418,-32.8 8,-32.8"/>
</g>
<g id="clust4" class="cluster">
<title>cluster_PageNotFoundModule_imports</title>
<polygon fill="none" stroke="black" points="206,-40.8 206,-92.8 410,-92.8 410,-40.8 206,-40.8"/>
</g>
<g id="clust2" class="cluster">
<title>cluster_PageNotFoundModule_declarations</title>
<polygon fill="none" stroke="black" points="16,-40.8 16,-92.8 198,-92.8 198,-40.8 16,-40.8"/>
</g>
<g id="clust5" class="cluster">
<title>cluster_PageNotFoundModule_exports</title>
<polygon fill="none" stroke="black" points="116,-170.8 116,-222.8 300,-222.8 300,-170.8 116,-170.8"/>
</g>
<!-- PageNotFoundComponent -->
<g id="node1" class="node">
<title>PageNotFoundComponent</title>
<polygon fill="#ffffb3" stroke="black" points="189.83,-84.8 24.17,-84.8 24.17,-48.8 189.83,-48.8 189.83,-84.8"/>
<text text-anchor="middle" x="107" y="-62.6" font-family="Times,serif" font-size="14.00">PageNotFoundComponent</text>
</g>
<!-- PageNotFoundModule -->
<g id="node2" class="node">
<title>PageNotFoundModule</title>
<polygon fill="#8dd3c7" stroke="black" points="279.55,-149.8 276.55,-153.8 255.55,-153.8 252.55,-149.8 136.45,-149.8 136.45,-113.8 279.55,-113.8 279.55,-149.8"/>
<text text-anchor="middle" x="208" y="-127.6" font-family="Times,serif" font-size="14.00">PageNotFoundModule</text>
</g>
<!-- PageNotFoundComponent&#45;&gt;PageNotFoundModule -->
<g id="edge1" class="edge">
<title>PageNotFoundComponent&#45;&gt;PageNotFoundModule</title>
<path fill="none" stroke="black" d="M162.94,-84.91C162.94,-84.91 162.94,-103.79 162.94,-103.79"/>
<polygon fill="black" stroke="black" points="159.44,-103.79 162.94,-113.79 166.44,-103.79 159.44,-103.79"/>
</g>
<!-- PageNotFoundComponent  -->
<g id="node4" class="node">
<title>PageNotFoundComponent </title>
<polygon fill="#fb8072" stroke="black" points="292.33,-214.8 123.67,-214.8 123.67,-178.8 292.33,-178.8 292.33,-214.8"/>
<text text-anchor="middle" x="208" y="-192.6" font-family="Times,serif" font-size="14.00">PageNotFoundComponent </text>
</g>
<!-- PageNotFoundModule&#45;&gt;PageNotFoundComponent  -->
<g id="edge3" class="edge">
<title>PageNotFoundModule&#45;&gt;PageNotFoundComponent </title>
<path fill="none" stroke="black" stroke-dasharray="5,2" d="M208,-149.91C208,-149.91 208,-168.79 208,-168.79"/>
<polygon fill="black" stroke="black" points="204.5,-168.79 208,-178.79 211.5,-168.79 204.5,-168.79"/>
</g>
<!-- PageNotFoundRoutingModule -->
<g id="node3" class="node">
<title>PageNotFoundRoutingModule</title>
<polygon fill="#8dd3c7" stroke="black" points="402.17,-84.8 399.17,-88.8 378.17,-88.8 375.17,-84.8 213.83,-84.8 213.83,-48.8 402.17,-48.8 402.17,-84.8"/>
<text text-anchor="middle" x="308" y="-62.6" font-family="Times,serif" font-size="14.00">PageNotFoundRoutingModule</text>
</g>
<!-- PageNotFoundRoutingModule&#45;&gt;PageNotFoundModule -->
<g id="edge2" class="edge">
<title>PageNotFoundRoutingModule&#45;&gt;PageNotFoundModule</title>
<path fill="none" stroke="black" d="M246.72,-84.91C246.72,-84.91 246.72,-103.79 246.72,-103.79"/>
<polygon fill="black" stroke="black" points="243.22,-103.79 246.72,-113.79 250.22,-103.79 243.22,-103.79"/>
</g>
</g>
</svg>
