<?xml version="1.0" encoding="UTF-8" standalone="no"?>
<!DOCTYPE svg PUBLIC "-//W3C//DTD SVG 1.1//EN"
 "http://www.w3.org/Graphics/SVG/1.1/DTD/svg11.dtd">
<!-- Generated by graphviz version 5.0.0 (20220707.1540)
 -->
<!-- Title: dependencies Pages: 1 -->
<svg width="620pt" height="247pt"
 viewBox="0.00 0.00 620.00 246.80" xmlns="http://www.w3.org/2000/svg" xmlns:xlink="http://www.w3.org/1999/xlink">
<g id="graph0" class="graph" transform="scale(1 1) rotate(0) translate(4 242.8)">
<title>dependencies</title>
<polygon fill="white" stroke="transparent" points="-4,4 -4,-242.8 616,-242.8 616,4 -4,4"/>
<text text-anchor="middle" x="306" y="-8.2" font-family="sans-serif" font-size="14.00">dependencies</text>
<g id="clust1" class="cluster">
<title>cluster_AppModule</title>
<polygon fill="none" stroke="black" stroke-dasharray="1,5" points="8,-32.8 8,-230.8 604,-230.8 604,-32.8 8,-32.8"/>
</g>
<g id="clust6" class="cluster">
<title>cluster_AppModule_bootstrap</title>
<polygon fill="none" stroke="black" points="204,-170.8 204,-222.8 328,-222.8 328,-170.8 204,-170.8"/>
</g>
<g id="clust2" class="cluster">
<title>cluster_AppModule_declarations</title>
<polygon fill="none" stroke="black" points="474,-40.8 474,-92.8 596,-92.8 596,-40.8 474,-40.8"/>
</g>
<g id="clust4" class="cluster">
<title>cluster_AppModule_imports</title>
<polygon fill="none" stroke="black" points="16,-40.8 16,-92.8 466,-92.8 466,-40.8 16,-40.8"/>
</g>
<!-- AppComponent -->
<g id="node1" class="node">
<title>AppComponent</title>
<polygon fill="#ffffb3" stroke="black" points="587.94,-84.8 482.06,-84.8 482.06,-48.8 587.94,-48.8 587.94,-84.8"/>
<text text-anchor="middle" x="535" y="-62.6" font-family="Times,serif" font-size="14.00">AppComponent</text>
</g>
<!-- AppModule -->
<g id="node2" class="node">
<title>AppModule</title>
<polygon fill="#8dd3c7" stroke="black" points="307.66,-149.8 304.66,-153.8 283.66,-153.8 280.66,-149.8 224.34,-149.8 224.34,-113.8 307.66,-113.8 307.66,-149.8"/>
<text text-anchor="middle" x="266" y="-127.6" font-family="Times,serif" font-size="14.00">AppModule</text>
</g>
<!-- AppComponent&#45;&gt;AppModule -->
<g id="edge1" class="edge">
<title>AppComponent&#45;&gt;AppModule</title>
<path fill="none" stroke="black" d="M535,-85.08C535,-106.12 535,-137.8 535,-137.8 535,-137.8 317.74,-137.8 317.74,-137.8"/>
<polygon fill="black" stroke="black" points="317.74,-134.3 307.74,-137.8 317.74,-141.3 317.74,-134.3"/>
</g>
<!-- AppComponent  -->
<g id="node7" class="node">
<title>AppComponent </title>
<polygon fill="#80b1d3" stroke="black" points="320.44,-214.8 211.56,-214.8 211.56,-178.8 320.44,-178.8 320.44,-214.8"/>
<text text-anchor="middle" x="266" y="-192.6" font-family="Times,serif" font-size="14.00">AppComponent </text>
</g>
<!-- AppModule&#45;&gt;AppComponent  -->
<g id="edge6" class="edge">
<title>AppModule&#45;&gt;AppComponent </title>
<path fill="none" stroke="black" stroke-dasharray="1,5" d="M266,-149.91C266,-149.91 266,-168.79 266,-168.79"/>
<polygon fill="black" stroke="black" points="262.5,-168.79 266,-178.79 269.5,-168.79 262.5,-168.79"/>
</g>
<!-- AppRoutingModule -->
<g id="node3" class="node">
<title>AppRoutingModule</title>
<polygon fill="#8dd3c7" stroke="black" points="458.28,-84.8 455.28,-88.8 434.28,-88.8 431.28,-84.8 329.72,-84.8 329.72,-48.8 458.28,-48.8 458.28,-84.8"/>
<text text-anchor="middle" x="394" y="-62.6" font-family="Times,serif" font-size="14.00">AppRoutingModule</text>
</g>
<!-- AppRoutingModule&#45;&gt;AppModule -->
<g id="edge2" class="edge">
<title>AppRoutingModule&#45;&gt;AppModule</title>
<path fill="none" stroke="black" d="M394,-84.82C394,-102.17 394,-125.8 394,-125.8 394,-125.8 317.91,-125.8 317.91,-125.8"/>
<polygon fill="black" stroke="black" points="317.91,-122.3 307.91,-125.8 317.91,-129.3 317.91,-122.3"/>
</g>
<!-- CanalModule -->
<g id="node4" class="node">
<title>CanalModule</title>
<polygon fill="#8dd3c7" stroke="black" points="312.21,-84.8 309.21,-88.8 288.21,-88.8 285.21,-84.8 219.79,-84.8 219.79,-48.8 312.21,-48.8 312.21,-84.8"/>
<text text-anchor="middle" x="266" y="-62.6" font-family="Times,serif" font-size="14.00">CanalModule</text>
</g>
<!-- CanalModule&#45;&gt;AppModule -->
<g id="edge3" class="edge">
<title>CanalModule&#45;&gt;AppModule</title>
<path fill="none" stroke="black" d="M266,-84.91C266,-84.91 266,-103.79 266,-103.79"/>
<polygon fill="black" stroke="black" points="262.5,-103.79 266,-113.79 269.5,-103.79 262.5,-103.79"/>
</g>
<!-- CoreModule -->
<g id="node5" class="node">
<title>CoreModule</title>
<polygon fill="#8dd3c7" stroke="black" points="202.27,-84.8 199.27,-88.8 178.27,-88.8 175.27,-84.8 115.73,-84.8 115.73,-48.8 202.27,-48.8 202.27,-84.8"/>
<text text-anchor="middle" x="159" y="-62.6" font-family="Times,serif" font-size="14.00">CoreModule</text>
</g>
<!-- CoreModule&#45;&gt;AppModule -->
<g id="edge4" class="edge">
<title>CoreModule&#45;&gt;AppModule</title>
<path fill="none" stroke="black" d="M159,-84.82C159,-102.17 159,-125.8 159,-125.8 159,-125.8 214.32,-125.8 214.32,-125.8"/>
<polygon fill="black" stroke="black" points="214.32,-129.3 224.32,-125.8 214.32,-122.3 214.32,-129.3"/>
</g>
<!-- UiModule -->
<g id="node6" class="node">
<title>UiModule</title>
<polygon fill="#8dd3c7" stroke="black" points="97.55,-84.8 94.55,-88.8 73.55,-88.8 70.55,-84.8 24.45,-84.8 24.45,-48.8 97.55,-48.8 97.55,-84.8"/>
<text text-anchor="middle" x="61" y="-62.6" font-family="Times,serif" font-size="14.00">UiModule</text>
</g>
<!-- UiModule&#45;&gt;AppModule -->
<g id="edge5" class="edge">
<title>UiModule&#45;&gt;AppModule</title>
<path fill="none" stroke="black" d="M61,-85.08C61,-106.12 61,-137.8 61,-137.8 61,-137.8 214.02,-137.8 214.02,-137.8"/>
<polygon fill="black" stroke="black" points="214.02,-141.3 224.02,-137.8 214.02,-134.3 214.02,-141.3"/>
</g>
</g>
</svg>
