<?xml version="1.0" encoding="UTF-8" standalone="no"?>
<!DOCTYPE svg PUBLIC "-//W3C//DTD SVG 1.1//EN"
 "http://www.w3.org/Graphics/SVG/1.1/DTD/svg11.dtd">
<!-- Generated by graphviz version 5.0.0 (20220707.1540)
 -->
<!-- Title: dependencies Pages: 1 -->
<svg width="1250pt" height="247pt"
 viewBox="0.00 0.00 1250.00 246.80" xmlns="http://www.w3.org/2000/svg" xmlns:xlink="http://www.w3.org/1999/xlink">
<g id="graph0" class="graph" transform="scale(1 1) rotate(0) translate(4 242.8)">
<title>dependencies</title>
<polygon fill="white" stroke="transparent" points="-4,4 -4,-242.8 1246,-242.8 1246,4 -4,4"/>
<text text-anchor="middle" x="621" y="-8.2" font-family="sans-serif" font-size="14.00">dependencies</text>
<g id="clust1" class="cluster">
<title>cluster_CanalModule</title>
<polygon fill="none" stroke="black" stroke-dasharray="1,5" points="8,-32.8 8,-230.8 1234,-230.8 1234,-32.8 8,-32.8"/>
</g>
<g id="clust9" class="cluster">
<title>cluster_CanalModule_exports</title>
<polygon fill="none" stroke="black" points="83,-170.8 83,-222.8 1040,-222.8 1040,-170.8 83,-170.8"/>
</g>
<g id="clust2" class="cluster">
<title>cluster_CanalModule_declarations</title>
<polygon fill="none" stroke="black" points="286,-40.8 286,-92.8 1226,-92.8 1226,-40.8 286,-40.8"/>
</g>
<g id="clust8" class="cluster">
<title>cluster_CanalModule_imports</title>
<polygon fill="none" stroke="black" points="16,-40.8 16,-92.8 278,-92.8 278,-40.8 16,-40.8"/>
</g>
<!-- CanalComponent -->
<g id="node1" class="node">
<title>CanalComponent</title>
<polygon fill="#ffffb3" stroke="black" points="1217.99,-84.8 1104.01,-84.8 1104.01,-48.8 1217.99,-48.8 1217.99,-84.8"/>
<text text-anchor="middle" x="1161" y="-62.6" font-family="Times,serif" font-size="14.00">CanalComponent</text>
</g>
<!-- CanalModule -->
<g id="node6" class="node">
<title>CanalModule</title>
<polygon fill="#8dd3c7" stroke="black" points="654.21,-149.8 651.21,-153.8 630.21,-153.8 627.21,-149.8 561.79,-149.8 561.79,-113.8 654.21,-113.8 654.21,-149.8"/>
<text text-anchor="middle" x="608" y="-127.6" font-family="Times,serif" font-size="14.00">CanalModule</text>
</g>
<!-- CanalComponent&#45;&gt;CanalModule -->
<g id="edge1" class="edge">
<title>CanalComponent&#45;&gt;CanalModule</title>
<path fill="none" stroke="black" d="M1161,-84.91C1161,-104.14 1161,-131.8 1161,-131.8 1161,-131.8 664.2,-131.8 664.2,-131.8"/>
<polygon fill="black" stroke="black" points="664.2,-128.3 654.2,-131.8 664.2,-135.3 664.2,-128.3"/>
</g>
<!-- PageAjouterCanalComponent -->
<g id="node2" class="node">
<title>PageAjouterCanalComponent</title>
<polygon fill="#ffffb3" stroke="black" points="1085.97,-84.8 902.03,-84.8 902.03,-48.8 1085.97,-48.8 1085.97,-84.8"/>
<text text-anchor="middle" x="994" y="-62.6" font-family="Times,serif" font-size="14.00">PageAjouterCanalComponent</text>
</g>
<!-- PageAjouterCanalComponent&#45;&gt;CanalModule -->
<g id="edge2" class="edge">
<title>PageAjouterCanalComponent&#45;&gt;CanalModule</title>
<path fill="none" stroke="black" d="M908.14,-84.82C908.14,-102.17 908.14,-125.8 908.14,-125.8 908.14,-125.8 664.24,-125.8 664.24,-125.8"/>
<polygon fill="black" stroke="black" points="664.24,-122.3 654.24,-125.8 664.24,-129.3 664.24,-122.3"/>
</g>
<!-- PageListCanalComponent -->
<g id="node3" class="node">
<title>PageListCanalComponent</title>
<polygon fill="#ffffb3" stroke="black" points="884.48,-84.8 721.52,-84.8 721.52,-48.8 884.48,-48.8 884.48,-84.8"/>
<text text-anchor="middle" x="803" y="-62.6" font-family="Times,serif" font-size="14.00">PageListCanalComponent</text>
</g>
<!-- PageListCanalComponent&#45;&gt;CanalModule -->
<g id="edge3" class="edge">
<title>PageListCanalComponent&#45;&gt;CanalModule</title>
<path fill="none" stroke="black" d="M803,-85.04C803,-100.37 803,-119.8 803,-119.8 803,-119.8 664.21,-119.8 664.21,-119.8"/>
<polygon fill="black" stroke="black" points="664.21,-116.3 654.21,-119.8 664.21,-123.3 664.21,-116.3"/>
</g>
<!-- PageModifierCanalComponent -->
<g id="node4" class="node">
<title>PageModifierCanalComponent</title>
<polygon fill="#ffffb3" stroke="black" points="703.47,-84.8 512.53,-84.8 512.53,-48.8 703.47,-48.8 703.47,-84.8"/>
<text text-anchor="middle" x="608" y="-62.6" font-family="Times,serif" font-size="14.00">PageModifierCanalComponent</text>
</g>
<!-- PageModifierCanalComponent&#45;&gt;CanalModule -->
<g id="edge4" class="edge">
<title>PageModifierCanalComponent&#45;&gt;CanalModule</title>
<path fill="none" stroke="black" d="M608,-84.91C608,-84.91 608,-103.79 608,-103.79"/>
<polygon fill="black" stroke="black" points="604.5,-103.79 608,-113.79 611.5,-103.79 604.5,-103.79"/>
</g>
<!-- PageSupprimerCanalComponent -->
<g id="node5" class="node">
<title>PageSupprimerCanalComponent</title>
<polygon fill="#ffffb3" stroke="black" points="494.3,-84.8 293.7,-84.8 293.7,-48.8 494.3,-48.8 494.3,-84.8"/>
<text text-anchor="middle" x="394" y="-62.6" font-family="Times,serif" font-size="14.00">PageSupprimerCanalComponent</text>
</g>
<!-- PageSupprimerCanalComponent&#45;&gt;CanalModule -->
<g id="edge5" class="edge">
<title>PageSupprimerCanalComponent&#45;&gt;CanalModule</title>
<path fill="none" stroke="black" d="M403.46,-85.04C403.46,-100.37 403.46,-119.8 403.46,-119.8 403.46,-119.8 551.84,-119.8 551.84,-119.8"/>
<polygon fill="black" stroke="black" points="551.84,-123.3 561.84,-119.8 551.84,-116.3 551.84,-123.3"/>
</g>
<!-- CanalComponent  -->
<g id="node9" class="node">
<title>CanalComponent </title>
<polygon fill="#fb8072" stroke="black" points="1031.99,-214.8 914.01,-214.8 914.01,-178.8 1031.99,-178.8 1031.99,-214.8"/>
<text text-anchor="middle" x="973" y="-192.6" font-family="Times,serif" font-size="14.00">CanalComponent </text>
</g>
<!-- CanalModule&#45;&gt;CanalComponent  -->
<g id="edge8" class="edge">
<title>CanalModule&#45;&gt;CanalComponent </title>
<path fill="none" stroke="black" stroke-dasharray="5,2" d="M654.23,-137.8C752.44,-137.8 973,-137.8 973,-137.8 973,-137.8 973,-168.78 973,-168.78"/>
<polygon fill="black" stroke="black" points="969.5,-168.78 973,-178.78 976.5,-168.78 969.5,-168.78"/>
</g>
<!-- PageAjouterCanalComponent  -->
<g id="node10" class="node">
<title>PageAjouterCanalComponent </title>
<polygon fill="#fb8072" stroke="black" points="896.97,-214.8 709.03,-214.8 709.03,-178.8 896.97,-178.8 896.97,-214.8"/>
<text text-anchor="middle" x="803" y="-192.6" font-family="Times,serif" font-size="14.00">PageAjouterCanalComponent </text>
</g>
<!-- CanalModule&#45;&gt;PageAjouterCanalComponent  -->
<g id="edge9" class="edge">
<title>CanalModule&#45;&gt;PageAjouterCanalComponent </title>
<path fill="none" stroke="black" stroke-dasharray="5,2" d="M654.17,-143.8C683.27,-143.8 715.39,-143.8 715.39,-143.8 715.39,-143.8 715.39,-168.56 715.39,-168.56"/>
<polygon fill="black" stroke="black" points="711.89,-168.56 715.39,-178.56 718.89,-168.56 711.89,-168.56"/>
</g>
<!-- PageListCanalComponent  -->
<g id="node11" class="node">
<title>PageListCanalComponent </title>
<polygon fill="#fb8072" stroke="black" points="691.48,-214.8 524.52,-214.8 524.52,-178.8 691.48,-178.8 691.48,-214.8"/>
<text text-anchor="middle" x="608" y="-192.6" font-family="Times,serif" font-size="14.00">PageListCanalComponent </text>
</g>
<!-- CanalModule&#45;&gt;PageListCanalComponent  -->
<g id="edge10" class="edge">
<title>CanalModule&#45;&gt;PageListCanalComponent </title>
<path fill="none" stroke="black" stroke-dasharray="5,2" d="M608,-149.91C608,-149.91 608,-168.79 608,-168.79"/>
<polygon fill="black" stroke="black" points="604.5,-168.79 608,-178.79 611.5,-168.79 604.5,-168.79"/>
</g>
<!-- PageModifierCanalComponent  -->
<g id="node12" class="node">
<title>PageModifierCanalComponent </title>
<polygon fill="#fb8072" stroke="black" points="507.47,-214.8 312.53,-214.8 312.53,-178.8 507.47,-178.8 507.47,-214.8"/>
<text text-anchor="middle" x="410" y="-192.6" font-family="Times,serif" font-size="14.00">PageModifierCanalComponent </text>
</g>
<!-- CanalModule&#45;&gt;PageModifierCanalComponent  -->
<g id="edge11" class="edge">
<title>CanalModule&#45;&gt;PageModifierCanalComponent </title>
<path fill="none" stroke="black" stroke-dasharray="5,2" d="M561.87,-143.8C532.79,-143.8 500.69,-143.8 500.69,-143.8 500.69,-143.8 500.69,-168.56 500.69,-168.56"/>
<polygon fill="black" stroke="black" points="497.19,-168.56 500.69,-178.56 504.19,-168.56 497.19,-168.56"/>
</g>
<!-- PageSupprimerCanalComponent  -->
<g id="node13" class="node">
<title>PageSupprimerCanalComponent </title>
<polygon fill="#fb8072" stroke="black" points="294.8,-214.8 91.2,-214.8 91.2,-178.8 294.8,-178.8 294.8,-214.8"/>
<text text-anchor="middle" x="193" y="-192.6" font-family="Times,serif" font-size="14.00">PageSupprimerCanalComponent </text>
</g>
<!-- CanalModule&#45;&gt;PageSupprimerCanalComponent  -->
<g id="edge12" class="edge">
<title>CanalModule&#45;&gt;PageSupprimerCanalComponent </title>
<path fill="none" stroke="black" stroke-dasharray="5,2" d="M561.6,-137.8C471.53,-137.8 281.76,-137.8 281.76,-137.8 281.76,-137.8 281.76,-168.78 281.76,-168.78"/>
<polygon fill="black" stroke="black" points="278.26,-168.78 281.76,-178.78 285.26,-168.78 278.26,-168.78"/>
</g>
<!-- CanalRoutingModule -->
<g id="node7" class="node">
<title>CanalRoutingModule</title>
<polygon fill="#8dd3c7" stroke="black" points="269.82,-84.8 266.82,-88.8 245.82,-88.8 242.82,-84.8 132.18,-84.8 132.18,-48.8 269.82,-48.8 269.82,-84.8"/>
<text text-anchor="middle" x="201" y="-62.6" font-family="Times,serif" font-size="14.00">CanalRoutingModule</text>
</g>
<!-- CanalRoutingModule&#45;&gt;CanalModule -->
<g id="edge6" class="edge">
<title>CanalRoutingModule&#45;&gt;CanalModule</title>
<path fill="none" stroke="black" d="M201,-84.82C201,-102.17 201,-125.8 201,-125.8 201,-125.8 551.71,-125.8 551.71,-125.8"/>
<polygon fill="black" stroke="black" points="551.71,-129.3 561.71,-125.8 551.71,-122.3 551.71,-129.3"/>
</g>
<!-- IconsModule -->
<g id="node8" class="node">
<title>IconsModule</title>
<polygon fill="#8dd3c7" stroke="black" points="113.88,-84.8 110.88,-88.8 89.88,-88.8 86.88,-84.8 24.12,-84.8 24.12,-48.8 113.88,-48.8 113.88,-84.8"/>
<text text-anchor="middle" x="69" y="-62.6" font-family="Times,serif" font-size="14.00">IconsModule</text>
</g>
<!-- IconsModule&#45;&gt;CanalModule -->
<g id="edge7" class="edge">
<title>IconsModule&#45;&gt;CanalModule</title>
<path fill="none" stroke="black" d="M102.52,-84.91C102.52,-104.14 102.52,-131.8 102.52,-131.8 102.52,-131.8 551.8,-131.8 551.8,-131.8"/>
<polygon fill="black" stroke="black" points="551.8,-135.3 561.8,-131.8 551.8,-128.3 551.8,-135.3"/>
</g>
</g>
</svg>
