<?xml version="1.0" encoding="UTF-8" standalone="no"?>
<!DOCTYPE svg PUBLIC "-//W3C//DTD SVG 1.1//EN"
 "http://www.w3.org/Graphics/SVG/1.1/DTD/svg11.dtd">
<!-- Generated by graphviz version 5.0.0 (20220707.1540)
 -->
<!-- Title: dependencies Pages: 1 -->
<svg width="2894pt" height="413pt"
 viewBox="0.00 0.00 2894.00 412.80" xmlns="http://www.w3.org/2000/svg" xmlns:xlink="http://www.w3.org/1999/xlink">
<g id="graph0" class="graph" transform="scale(1 1) rotate(0) translate(4 408.8)">
<title>dependencies</title>
<polygon fill="white" stroke="transparent" points="-4,4 -4,-408.8 2890,-408.8 2890,4 -4,4"/>
<text text-anchor="middle" x="1443" y="-8.2" font-family="sans-serif" font-size="14.00">dependencies</text>
<g id="clust1" class="cluster">
<title>cluster_AppModule</title>
<polygon fill="none" stroke="black" stroke-dasharray="1,5" points="774,-108.8 774,-396.8 1330,-396.8 1330,-108.8 774,-108.8"/>
</g>
<g id="clust2" class="cluster">
<title>cluster_AppModule_declarations</title>
<polygon fill="none" stroke="black" points="834,-192.8 834,-244.8 956,-244.8 956,-192.8 834,-192.8"/>
</g>
<g id="clust4" class="cluster">
<title>cluster_AppModule_imports</title>
<polygon fill="none" stroke="black" points="964,-116.8 964,-244.8 1322,-244.8 1322,-116.8 964,-116.8"/>
</g>
<g id="clust6" class="cluster">
<title>cluster_AppModule_bootstrap</title>
<polygon fill="none" stroke="black" points="782,-336.8 782,-388.8 906,-388.8 906,-336.8 782,-336.8"/>
</g>
<g id="clust14" class="cluster">
<title>cluster_CanalModule</title>
<polygon fill="none" stroke="black" stroke-dasharray="1,5" points="8,-32.8 8,-100.8 2199,-100.8 2199,-32.8 8,-32.8"/>
</g>
<g id="clust15" class="cluster">
<title>cluster_CanalModule_declarations</title>
<polygon fill="none" stroke="black" points="981,-40.8 981,-92.8 1921,-92.8 1921,-40.8 981,-40.8"/>
</g>
<g id="clust21" class="cluster">
<title>cluster_CanalModule_imports</title>
<polygon fill="none" stroke="black" points="1929,-40.8 1929,-92.8 2191,-92.8 2191,-40.8 1929,-40.8"/>
</g>
<g id="clust22" class="cluster">
<title>cluster_CanalModule_exports</title>
<polygon fill="none" stroke="black" points="16,-40.8 16,-92.8 973,-92.8 973,-40.8 16,-40.8"/>
</g>
<g id="clust31" class="cluster">
<title>cluster_CoreModule</title>
<polygon fill="none" stroke="black" stroke-dasharray="1,5" points="1338,-184.8 1338,-252.8 2347,-252.8 2347,-184.8 1338,-184.8"/>
</g>
<g id="clust32" class="cluster">
<title>cluster_CoreModule_declarations</title>
<polygon fill="none" stroke="black" points="1900,-192.8 1900,-244.8 2339,-244.8 2339,-192.8 1900,-192.8"/>
</g>
<g id="clust37" class="cluster">
<title>cluster_CoreModule_exports</title>
<polygon fill="none" stroke="black" points="1346,-192.8 1346,-244.8 1892,-244.8 1892,-192.8 1346,-192.8"/>
</g>
<g id="clust40" class="cluster">
<title>cluster_IconsModule</title>
<polygon fill="none" stroke="black" stroke-dasharray="1,5" points="1816,-108.8 1816,-176.8 2460,-176.8 2460,-108.8 1816,-108.8"/>
</g>
<g id="clust41" class="cluster">
<title>cluster_IconsModule_declarations</title>
<polygon fill="none" stroke="black" points="2146,-116.8 2146,-168.8 2452,-168.8 2452,-116.8 2146,-116.8"/>
</g>
<g id="clust45" class="cluster">
<title>cluster_IconsModule_exports</title>
<polygon fill="none" stroke="black" points="1824,-116.8 1824,-168.8 2138,-168.8 2138,-116.8 1824,-116.8"/>
</g>
<g id="clust48" class="cluster">
<title>cluster_PageNotFoundModule</title>
<polygon fill="none" stroke="black" stroke-dasharray="1,5" points="2468,-32.8 2468,-252.8 2878,-252.8 2878,-32.8 2468,-32.8"/>
</g>
<g id="clust49" class="cluster">
<title>cluster_PageNotFoundModule_declarations</title>
<polygon fill="none" stroke="black" points="2688,-40.8 2688,-92.8 2870,-92.8 2870,-40.8 2688,-40.8"/>
</g>
<g id="clust51" class="cluster">
<title>cluster_PageNotFoundModule_imports</title>
<polygon fill="none" stroke="black" points="2476,-40.8 2476,-92.8 2680,-92.8 2680,-40.8 2476,-40.8"/>
</g>
<g id="clust52" class="cluster">
<title>cluster_PageNotFoundModule_exports</title>
<polygon fill="none" stroke="black" points="2586,-192.8 2586,-244.8 2770,-244.8 2770,-192.8 2586,-192.8"/>
</g>
<g id="clust61" class="cluster">
<title>cluster_UiModule</title>
<polygon fill="none" stroke="black" stroke-dasharray="1,5" points="1338,-260.8 1338,-328.8 1588,-328.8 1588,-260.8 1338,-260.8"/>
</g>
<g id="clust62" class="cluster">
<title>cluster_UiModule_declarations</title>
<polygon fill="none" stroke="black" points="1468,-268.8 1468,-320.8 1580,-320.8 1580,-268.8 1468,-268.8"/>
</g>
<g id="clust65" class="cluster">
<title>cluster_UiModule_exports</title>
<polygon fill="none" stroke="black" points="1346,-268.8 1346,-320.8 1460,-320.8 1460,-268.8 1346,-268.8"/>
</g>
<!-- AppComponent -->
<g id="node1" class="node">
<title>AppComponent</title>
<polygon fill="#ffffb3" stroke="black" points="947.94,-236.8 842.06,-236.8 842.06,-200.8 947.94,-200.8 947.94,-236.8"/>
<text text-anchor="middle" x="895" y="-214.6" font-family="Times,serif" font-size="14.00">AppComponent</text>
</g>
<!-- AppModule -->
<g id="node2" class="node">
<title>AppModule</title>
<polygon fill="#8dd3c7" stroke="black" points="875.66,-312.8 872.66,-316.8 851.66,-316.8 848.66,-312.8 792.34,-312.8 792.34,-276.8 875.66,-276.8 875.66,-312.8"/>
<text text-anchor="middle" x="834" y="-290.6" font-family="Times,serif" font-size="14.00">AppModule</text>
</g>
<!-- AppComponent&#45;&gt;AppModule -->
<g id="edge1" class="edge">
<title>AppComponent&#45;&gt;AppModule</title>
<path fill="none" stroke="black" d="M859.06,-236.81C859.06,-236.81 859.06,-266.65 859.06,-266.65"/>
<polygon fill="black" stroke="black" points="855.56,-266.65 859.06,-276.65 862.56,-266.65 855.56,-266.65"/>
</g>
<!-- AppComponent  -->
<g id="node7" class="node">
<title>AppComponent </title>
<polygon fill="#80b1d3" stroke="black" points="898.44,-380.8 789.56,-380.8 789.56,-344.8 898.44,-344.8 898.44,-380.8"/>
<text text-anchor="middle" x="844" y="-358.6" font-family="Times,serif" font-size="14.00">AppComponent </text>
</g>
<!-- AppModule&#45;&gt;AppComponent  -->
<g id="edge6" class="edge">
<title>AppModule&#45;&gt;AppComponent </title>
<path fill="none" stroke="black" stroke-dasharray="1,5" d="M834,-313.02C834,-313.02 834,-334.53 834,-334.53"/>
<polygon fill="black" stroke="black" points="830.5,-334.53 834,-344.53 837.5,-334.53 830.5,-334.53"/>
</g>
<!-- AppRoutingModule -->
<g id="node3" class="node">
<title>AppRoutingModule</title>
<polygon fill="#8dd3c7" stroke="black" points="1100.28,-160.8 1097.28,-164.8 1076.28,-164.8 1073.28,-160.8 971.72,-160.8 971.72,-124.8 1100.28,-124.8 1100.28,-160.8"/>
<text text-anchor="middle" x="1036" y="-138.6" font-family="Times,serif" font-size="14.00">AppRoutingModule</text>
</g>
<!-- AppRoutingModule&#45;&gt;AppModule -->
<g id="edge2" class="edge">
<title>AppRoutingModule&#45;&gt;AppModule</title>
<path fill="none" stroke="black" d="M971.64,-142.8C908.15,-142.8 820.52,-142.8 820.52,-142.8 820.52,-142.8 820.52,-266.77 820.52,-266.77"/>
<polygon fill="black" stroke="black" points="817.02,-266.77 820.52,-276.77 824.02,-266.77 817.02,-266.77"/>
</g>
<!-- CanalModule -->
<g id="node4" class="node">
<title>CanalModule</title>
<polygon fill="#8dd3c7" stroke="black" points="1210.21,-160.8 1207.21,-164.8 1186.21,-164.8 1183.21,-160.8 1117.79,-160.8 1117.79,-124.8 1210.21,-124.8 1210.21,-160.8"/>
<text text-anchor="middle" x="1164" y="-138.6" font-family="Times,serif" font-size="14.00">CanalModule</text>
</g>
<!-- CanalModule&#45;&gt;AppModule -->
<g id="edge3" class="edge">
<title>CanalModule&#45;&gt;AppModule</title>
<path fill="none" stroke="black" d="M1150.56,-161.07C1150.56,-199.43 1150.56,-284.8 1150.56,-284.8 1150.56,-284.8 885.71,-284.8 885.71,-284.8"/>
<polygon fill="black" stroke="black" points="885.71,-281.3 875.71,-284.8 885.71,-288.3 885.71,-281.3"/>
</g>
<!-- UiModule -->
<g id="node6" class="node">
<title>UiModule</title>
<polygon fill="#8dd3c7" stroke="black" points="1256.55,-236.8 1253.55,-240.8 1232.55,-240.8 1229.55,-236.8 1183.45,-236.8 1183.45,-200.8 1256.55,-200.8 1256.55,-236.8"/>
<text text-anchor="middle" x="1220" y="-214.6" font-family="Times,serif" font-size="14.00">UiModule</text>
</g>
<!-- CanalModule&#45;&gt;UiModule -->
<g id="edge34" class="edge">
<title>CanalModule&#45;&gt;UiModule</title>
<path fill="none" stroke="black" d="M1196.66,-160.81C1196.66,-160.81 1196.66,-190.65 1196.66,-190.65"/>
<polygon fill="black" stroke="black" points="1193.16,-190.65 1196.66,-200.65 1200.16,-190.65 1193.16,-190.65"/>
</g>
<!-- CanalComponent  -->
<g id="node15" class="node">
<title>CanalComponent </title>
<polygon fill="#fb8072" stroke="black" points="346.99,-84.8 229.01,-84.8 229.01,-48.8 346.99,-48.8 346.99,-84.8"/>
<text text-anchor="middle" x="288" y="-62.6" font-family="Times,serif" font-size="14.00">CanalComponent </text>
</g>
<!-- CanalModule&#45;&gt;CanalComponent  -->
<g id="edge14" class="edge">
<title>CanalModule&#45;&gt;CanalComponent </title>
<path fill="none" stroke="black" stroke-dasharray="5,2" d="M1133.64,-124.65C1133.64,-112.53 1133.64,-98.8 1133.64,-98.8 1133.64,-98.8 288,-98.8 288,-98.8 288,-98.8 288,-95.04 288,-95.04"/>
<polygon fill="black" stroke="black" points="291.5,-95.04 288,-85.04 284.5,-95.04 291.5,-95.04"/>
</g>
<!-- PageAjouterCanalComponent  -->
<g id="node16" class="node">
<title>PageAjouterCanalComponent </title>
<polygon fill="#fb8072" stroke="black" points="211.97,-84.8 24.03,-84.8 24.03,-48.8 211.97,-48.8 211.97,-84.8"/>
<text text-anchor="middle" x="118" y="-62.6" font-family="Times,serif" font-size="14.00">PageAjouterCanalComponent </text>
</g>
<!-- CanalModule&#45;&gt;PageAjouterCanalComponent  -->
<g id="edge15" class="edge">
<title>CanalModule&#45;&gt;PageAjouterCanalComponent </title>
<path fill="none" stroke="black" stroke-dasharray="5,2" d="M1125.77,-124.7C1125.77,-113.71 1125.77,-101.8 1125.77,-101.8 1125.77,-101.8 118,-101.8 118,-101.8 118,-101.8 118,-95.12 118,-95.12"/>
<polygon fill="black" stroke="black" points="121.5,-95.12 118,-85.12 114.5,-95.12 121.5,-95.12"/>
</g>
<!-- PageListCanalComponent  -->
<g id="node17" class="node">
<title>PageListCanalComponent </title>
<polygon fill="#fb8072" stroke="black" points="965.48,-84.8 798.52,-84.8 798.52,-48.8 965.48,-48.8 965.48,-84.8"/>
<text text-anchor="middle" x="882" y="-62.6" font-family="Times,serif" font-size="14.00">PageListCanalComponent </text>
</g>
<!-- CanalModule&#45;&gt;PageListCanalComponent  -->
<g id="edge16" class="edge">
<title>CanalModule&#45;&gt;PageListCanalComponent </title>
<path fill="none" stroke="black" stroke-dasharray="5,2" d="M1157.24,-124.52C1157.24,-108.85 1157.24,-88.8 1157.24,-88.8 1157.24,-88.8 956.48,-88.8 956.48,-88.8 956.48,-88.8 956.48,-88.42 956.48,-88.42"/>
<polygon fill="black" stroke="black" points="959.98,-94.97 956.48,-84.97 952.98,-94.97 959.98,-94.97"/>
</g>
<!-- PageModifierCanalComponent  -->
<g id="node18" class="node">
<title>PageModifierCanalComponent </title>
<polygon fill="#fb8072" stroke="black" points="781.47,-84.8 586.53,-84.8 586.53,-48.8 781.47,-48.8 781.47,-84.8"/>
<text text-anchor="middle" x="684" y="-62.6" font-family="Times,serif" font-size="14.00">PageModifierCanalComponent </text>
</g>
<!-- CanalModule&#45;&gt;PageModifierCanalComponent  -->
<g id="edge17" class="edge">
<title>CanalModule&#45;&gt;PageModifierCanalComponent </title>
<path fill="none" stroke="black" stroke-dasharray="5,2" d="M1149.37,-124.68C1149.37,-110.02 1149.37,-91.8 1149.37,-91.8 1149.37,-91.8 684,-91.8 684,-91.8 684,-91.8 684,-91.12 684,-91.12"/>
<polygon fill="black" stroke="black" points="687.5,-94.97 684,-84.97 680.5,-94.97 687.5,-94.97"/>
</g>
<!-- PageSupprimerCanalComponent  -->
<g id="node19" class="node">
<title>PageSupprimerCanalComponent </title>
<polygon fill="#fb8072" stroke="black" points="568.8,-84.8 365.2,-84.8 365.2,-48.8 568.8,-48.8 568.8,-84.8"/>
<text text-anchor="middle" x="467" y="-62.6" font-family="Times,serif" font-size="14.00">PageSupprimerCanalComponent </text>
</g>
<!-- CanalModule&#45;&gt;PageSupprimerCanalComponent  -->
<g id="edge18" class="edge">
<title>CanalModule&#45;&gt;PageSupprimerCanalComponent </title>
<path fill="none" stroke="black" stroke-dasharray="5,2" d="M1141.5,-124.65C1141.5,-111.06 1141.5,-94.8 1141.5,-94.8 1141.5,-94.8 467,-94.8 467,-94.8 467,-94.8 467,-93.82 467,-93.82"/>
<polygon fill="black" stroke="black" points="470.5,-95.01 467,-85.01 463.5,-95.01 470.5,-95.01"/>
</g>
<!-- CoreModule -->
<g id="node5" class="node">
<title>CoreModule</title>
<polygon fill="#8dd3c7" stroke="black" points="1314.27,-160.8 1311.27,-164.8 1290.27,-164.8 1287.27,-160.8 1227.73,-160.8 1227.73,-124.8 1314.27,-124.8 1314.27,-160.8"/>
<text text-anchor="middle" x="1271" y="-138.6" font-family="Times,serif" font-size="14.00">CoreModule</text>
</g>
<!-- CoreModule&#45;&gt;AppModule -->
<g id="edge4" class="edge">
<title>CoreModule&#45;&gt;AppModule</title>
<path fill="none" stroke="black" d="M1295.18,-161C1295.18,-202.15 1295.18,-298.8 1295.18,-298.8 1295.18,-298.8 885.74,-298.8 885.74,-298.8"/>
<polygon fill="black" stroke="black" points="885.74,-295.3 875.74,-298.8 885.74,-302.3 885.74,-295.3"/>
</g>
<!-- FormMessageComponent  -->
<g id="node23" class="node">
<title>FormMessageComponent </title>
<polygon fill="#fb8072" stroke="black" points="1662.16,-236.8 1497.84,-236.8 1497.84,-200.8 1662.16,-200.8 1662.16,-236.8"/>
<text text-anchor="middle" x="1580" y="-214.6" font-family="Times,serif" font-size="14.00">FormMessageComponent </text>
</g>
<!-- CoreModule&#45;&gt;FormMessageComponent  -->
<g id="edge22" class="edge">
<title>CoreModule&#45;&gt;FormMessageComponent </title>
<path fill="none" stroke="black" stroke-dasharray="5,2" d="M1314.38,-151.8C1383.41,-151.8 1510.54,-151.8 1510.54,-151.8 1510.54,-151.8 1510.54,-190.49 1510.54,-190.49"/>
<polygon fill="black" stroke="black" points="1507.04,-190.49 1510.54,-200.49 1514.04,-190.49 1507.04,-190.49"/>
</g>
<!-- HeaderComponent  -->
<g id="node24" class="node">
<title>HeaderComponent </title>
<polygon fill="#fb8072" stroke="black" points="1479.75,-236.8 1354.25,-236.8 1354.25,-200.8 1479.75,-200.8 1479.75,-236.8"/>
<text text-anchor="middle" x="1417" y="-214.6" font-family="Times,serif" font-size="14.00">HeaderComponent </text>
</g>
<!-- CoreModule&#45;&gt;HeaderComponent  -->
<g id="edge23" class="edge">
<title>CoreModule&#45;&gt;HeaderComponent </title>
<path fill="none" stroke="black" stroke-dasharray="5,2" d="M1304.78,-160.81C1304.78,-183.29 1304.78,-218.8 1304.78,-218.8 1304.78,-218.8 1344.33,-218.8 1344.33,-218.8"/>
<polygon fill="black" stroke="black" points="1344.33,-222.3 1354.33,-218.8 1344.33,-215.3 1344.33,-222.3"/>
</g>
<!-- NavComponent  -->
<g id="node25" class="node">
<title>NavComponent </title>
<polygon fill="#fb8072" stroke="black" points="1884.16,-236.8 1775.84,-236.8 1775.84,-200.8 1884.16,-200.8 1884.16,-236.8"/>
<text text-anchor="middle" x="1830" y="-214.6" font-family="Times,serif" font-size="14.00">NavComponent </text>
</g>
<!-- CoreModule&#45;&gt;NavComponent  -->
<g id="edge24" class="edge">
<title>CoreModule&#45;&gt;NavComponent </title>
<path fill="none" stroke="black" stroke-dasharray="5,2" d="M1314.63,-133.8C1441.98,-133.8 1804.2,-133.8 1804.2,-133.8 1804.2,-133.8 1804.2,-190.77 1804.2,-190.77"/>
<polygon fill="black" stroke="black" points="1800.7,-190.77 1804.2,-200.77 1807.7,-190.77 1800.7,-190.77"/>
</g>
<!-- UiModule  -->
<g id="node26" class="node">
<title>UiModule </title>
<polygon fill="#fb8072" stroke="black" points="1757.55,-236.8 1680.45,-236.8 1680.45,-200.8 1757.55,-200.8 1757.55,-236.8"/>
<text text-anchor="middle" x="1719" y="-214.6" font-family="Times,serif" font-size="14.00">UiModule </text>
</g>
<!-- CoreModule&#45;&gt;UiModule  -->
<g id="edge25" class="edge">
<title>CoreModule&#45;&gt;UiModule </title>
<path fill="none" stroke="black" stroke-dasharray="5,2" d="M1314.35,-142.8C1424.5,-142.8 1706.48,-142.8 1706.48,-142.8 1706.48,-142.8 1706.48,-190.79 1706.48,-190.79"/>
<polygon fill="black" stroke="black" points="1702.98,-190.79 1706.48,-200.79 1709.98,-190.79 1702.98,-190.79"/>
</g>
<!-- UiModule&#45;&gt;AppModule -->
<g id="edge5" class="edge">
<title>UiModule&#45;&gt;AppModule</title>
<path fill="none" stroke="black" d="M1201.61,-236.84C1201.61,-258.46 1201.61,-291.8 1201.61,-291.8 1201.61,-291.8 885.81,-291.8 885.81,-291.8"/>
<polygon fill="black" stroke="black" points="885.81,-288.3 875.81,-291.8 885.81,-295.3 885.81,-288.3"/>
</g>
<!-- UiComponent  -->
<g id="node36" class="node">
<title>UiComponent </title>
<polygon fill="#fb8072" stroke="black" points="1452.33,-312.8 1353.67,-312.8 1353.67,-276.8 1452.33,-276.8 1452.33,-312.8"/>
<text text-anchor="middle" x="1403" y="-290.6" font-family="Times,serif" font-size="14.00">UiComponent </text>
</g>
<!-- UiModule&#45;&gt;UiComponent  -->
<g id="edge35" class="edge">
<title>UiModule&#45;&gt;UiComponent </title>
<path fill="none" stroke="black" stroke-dasharray="5,2" d="M1238.39,-236.83C1238.39,-262.31 1238.39,-305.8 1238.39,-305.8 1238.39,-305.8 1343.61,-305.8 1343.61,-305.8"/>
<polygon fill="black" stroke="black" points="1343.61,-309.3 1353.61,-305.8 1343.61,-302.3 1343.61,-309.3"/>
</g>
<!-- CanalComponent -->
<g id="node8" class="node">
<title>CanalComponent</title>
<polygon fill="#ffffb3" stroke="black" points="1304.99,-84.8 1191.01,-84.8 1191.01,-48.8 1304.99,-48.8 1304.99,-84.8"/>
<text text-anchor="middle" x="1248" y="-62.6" font-family="Times,serif" font-size="14.00">CanalComponent</text>
</g>
<!-- CanalComponent&#45;&gt;CanalModule -->
<g id="edge7" class="edge">
<title>CanalComponent&#45;&gt;CanalModule</title>
<path fill="none" stroke="black" d="M1193.73,-84.81C1193.73,-84.81 1193.73,-114.65 1193.73,-114.65"/>
<polygon fill="black" stroke="black" points="1190.24,-114.65 1193.73,-124.65 1197.24,-114.65 1190.24,-114.65"/>
</g>
<!-- PageAjouterCanalComponent -->
<g id="node9" class="node">
<title>PageAjouterCanalComponent</title>
<polygon fill="#ffffb3" stroke="black" points="1172.97,-84.8 989.03,-84.8 989.03,-48.8 1172.97,-48.8 1172.97,-84.8"/>
<text text-anchor="middle" x="1081" y="-62.6" font-family="Times,serif" font-size="14.00">PageAjouterCanalComponent</text>
</g>
<!-- PageAjouterCanalComponent&#45;&gt;CanalModule -->
<g id="edge8" class="edge">
<title>PageAjouterCanalComponent&#45;&gt;CanalModule</title>
<path fill="none" stroke="black" d="M1165.11,-84.81C1165.11,-84.81 1165.11,-114.65 1165.11,-114.65"/>
<polygon fill="black" stroke="black" points="1161.61,-114.65 1165.11,-124.65 1168.61,-114.65 1161.61,-114.65"/>
</g>
<!-- PageListCanalComponent -->
<g id="node10" class="node">
<title>PageListCanalComponent</title>
<polygon fill="#ffffb3" stroke="black" points="1913.48,-84.8 1750.52,-84.8 1750.52,-48.8 1913.48,-48.8 1913.48,-84.8"/>
<text text-anchor="middle" x="1832" y="-62.6" font-family="Times,serif" font-size="14.00">PageListCanalComponent</text>
</g>
<!-- PageListCanalComponent&#45;&gt;CanalModule -->
<g id="edge9" class="edge">
<title>PageListCanalComponent&#45;&gt;CanalModule</title>
<path fill="none" stroke="black" d="M1754.02,-84.84C1754.02,-97.36 1754.02,-111.8 1754.02,-111.8 1754.02,-111.8 1201.92,-111.8 1201.92,-111.8 1201.92,-111.8 1201.92,-114.77 1201.92,-114.77"/>
<polygon fill="black" stroke="black" points="1198.42,-114.77 1201.92,-124.77 1205.42,-114.77 1198.42,-114.77"/>
</g>
<!-- PageModifierCanalComponent -->
<g id="node11" class="node">
<title>PageModifierCanalComponent</title>
<polygon fill="#ffffb3" stroke="black" points="1732.47,-84.8 1541.53,-84.8 1541.53,-48.8 1732.47,-48.8 1732.47,-84.8"/>
<text text-anchor="middle" x="1637" y="-62.6" font-family="Times,serif" font-size="14.00">PageModifierCanalComponent</text>
</g>
<!-- PageModifierCanalComponent&#45;&gt;CanalModule -->
<g id="edge10" class="edge">
<title>PageModifierCanalComponent&#45;&gt;CanalModule</title>
<path fill="none" stroke="black" d="M1601.8,-84.86C1601.8,-96.24 1601.8,-108.8 1601.8,-108.8 1601.8,-108.8 1199.19,-108.8 1199.19,-108.8 1199.19,-108.8 1199.19,-114.61 1199.19,-114.61"/>
<polygon fill="black" stroke="black" points="1195.69,-114.61 1199.19,-124.61 1202.69,-114.61 1195.69,-114.61"/>
</g>
<!-- PageSupprimerCanalComponent -->
<g id="node12" class="node">
<title>PageSupprimerCanalComponent</title>
<polygon fill="#ffffb3" stroke="black" points="1523.3,-84.8 1322.7,-84.8 1322.7,-48.8 1523.3,-48.8 1523.3,-84.8"/>
<text text-anchor="middle" x="1423" y="-62.6" font-family="Times,serif" font-size="14.00">PageSupprimerCanalComponent</text>
</g>
<!-- PageSupprimerCanalComponent&#45;&gt;CanalModule -->
<g id="edge11" class="edge">
<title>PageSupprimerCanalComponent&#45;&gt;CanalModule</title>
<path fill="none" stroke="black" d="M1338.22,-84.91C1338.22,-94.7 1338.22,-104.8 1338.22,-104.8 1338.22,-104.8 1196.46,-104.8 1196.46,-104.8 1196.46,-104.8 1196.46,-114.69 1196.46,-114.69"/>
<polygon fill="black" stroke="black" points="1192.96,-114.69 1196.46,-124.69 1199.96,-114.69 1192.96,-114.69"/>
</g>
<!-- CanalRoutingModule -->
<g id="node13" class="node">
<title>CanalRoutingModule</title>
<polygon fill="#8dd3c7" stroke="black" points="2074.82,-84.8 2071.82,-88.8 2050.82,-88.8 2047.82,-84.8 1937.18,-84.8 1937.18,-48.8 2074.82,-48.8 2074.82,-84.8"/>
<text text-anchor="middle" x="2006" y="-62.6" font-family="Times,serif" font-size="14.00">CanalRoutingModule</text>
</g>
<!-- CanalRoutingModule&#45;&gt;CanalModule -->
<g id="edge12" class="edge">
<title>CanalRoutingModule&#45;&gt;CanalModule</title>
<path fill="none" stroke="black" d="M1946.73,-84.95C1946.73,-98.54 1946.73,-114.8 1946.73,-114.8 1946.73,-114.8 1204.65,-114.8 1204.65,-114.8 1204.65,-114.8 1204.65,-115.78 1204.65,-115.78"/>
<polygon fill="black" stroke="black" points="1201.15,-114.59 1204.65,-124.59 1208.15,-114.59 1201.15,-114.59"/>
</g>
<!-- IconsModule -->
<g id="node14" class="node">
<title>IconsModule</title>
<polygon fill="#8dd3c7" stroke="black" points="2182.88,-84.8 2179.88,-88.8 2158.88,-88.8 2155.88,-84.8 2093.12,-84.8 2093.12,-48.8 2182.88,-48.8 2182.88,-84.8"/>
<text text-anchor="middle" x="2138" y="-62.6" font-family="Times,serif" font-size="14.00">IconsModule</text>
</g>
<!-- IconsModule&#45;&gt;CanalModule -->
<g id="edge13" class="edge">
<title>IconsModule&#45;&gt;CanalModule</title>
<path fill="none" stroke="black" d="M2102.33,-84.99C2102.33,-99.98 2102.33,-118.8 2102.33,-118.8 2102.33,-118.8 1207.38,-118.8 1207.38,-118.8 1207.38,-118.8 1207.38,-119.38 1207.38,-119.38"/>
<polygon fill="black" stroke="black" points="1203.88,-114.61 1207.38,-124.61 1210.88,-114.61 1203.88,-114.61"/>
</g>
<!-- IconDeleteComponent  -->
<g id="node29" class="node">
<title>IconDeleteComponent </title>
<polygon fill="#fb8072" stroke="black" points="2130.24,-160.8 1983.76,-160.8 1983.76,-124.8 2130.24,-124.8 2130.24,-160.8"/>
<text text-anchor="middle" x="2057" y="-138.6" font-family="Times,serif" font-size="14.00">IconDeleteComponent </text>
</g>
<!-- IconsModule&#45;&gt;IconDeleteComponent  -->
<g id="edge28" class="edge">
<title>IconsModule&#45;&gt;IconDeleteComponent </title>
<path fill="none" stroke="black" stroke-dasharray="5,2" d="M2120.85,-84.81C2120.85,-84.81 2120.85,-114.65 2120.85,-114.65"/>
<polygon fill="black" stroke="black" points="2117.35,-114.65 2120.85,-124.65 2124.35,-114.65 2117.35,-114.65"/>
</g>
<!-- IconEditComponent  -->
<g id="node30" class="node">
<title>IconEditComponent </title>
<polygon fill="#fb8072" stroke="black" points="1965.54,-160.8 1832.46,-160.8 1832.46,-124.8 1965.54,-124.8 1965.54,-160.8"/>
<text text-anchor="middle" x="1899" y="-138.6" font-family="Times,serif" font-size="14.00">IconEditComponent </text>
</g>
<!-- IconsModule&#45;&gt;IconEditComponent  -->
<g id="edge29" class="edge">
<title>IconsModule&#45;&gt;IconEditComponent </title>
<path fill="none" stroke="black" stroke-dasharray="5,2" d="M2111.59,-84.81C2111.59,-100.85 2111.59,-121.8 2111.59,-121.8 2111.59,-121.8 1956.13,-121.8 1956.13,-121.8 1956.13,-121.8 1956.13,-122.09 1956.13,-122.09"/>
<polygon fill="black" stroke="black" points="1952.63,-114.72 1956.13,-124.72 1959.63,-114.72 1952.63,-114.72"/>
</g>
<!-- FormMessageComponent -->
<g id="node20" class="node">
<title>FormMessageComponent</title>
<polygon fill="#ffffb3" stroke="black" points="2068.16,-236.8 1907.84,-236.8 1907.84,-200.8 2068.16,-200.8 2068.16,-236.8"/>
<text text-anchor="middle" x="1988" y="-214.6" font-family="Times,serif" font-size="14.00">FormMessageComponent</text>
</g>
<!-- FormMessageComponent&#45;&gt;CoreModule -->
<g id="edge19" class="edge">
<title>FormMessageComponent&#45;&gt;CoreModule</title>
<path fill="none" stroke="black" d="M1936.6,-200.59C1936.6,-195.25 1936.6,-190.8 1936.6,-190.8 1936.6,-190.8 1266.38,-190.8 1266.38,-190.8 1266.38,-190.8 1266.38,-170.95 1266.38,-170.95"/>
<polygon fill="black" stroke="black" points="1269.88,-170.95 1266.38,-160.95 1262.88,-170.95 1269.88,-170.95"/>
</g>
<!-- HeaderComponent -->
<g id="node21" class="node">
<title>HeaderComponent</title>
<polygon fill="#ffffb3" stroke="black" points="2330.75,-236.8 2209.25,-236.8 2209.25,-200.8 2330.75,-200.8 2330.75,-236.8"/>
<text text-anchor="middle" x="2270" y="-214.6" font-family="Times,serif" font-size="14.00">HeaderComponent</text>
</g>
<!-- HeaderComponent&#45;&gt;CoreModule -->
<g id="edge20" class="edge">
<title>HeaderComponent&#45;&gt;CoreModule</title>
<path fill="none" stroke="black" d="M2246.45,-200.65C2246.45,-187.06 2246.45,-170.8 2246.45,-170.8 2246.45,-170.8 1285.58,-170.8 1285.58,-170.8 1285.58,-170.8 1285.58,-169.82 1285.58,-169.82"/>
<polygon fill="black" stroke="black" points="1289.08,-171.01 1285.58,-161.01 1282.08,-171.01 1289.08,-171.01"/>
</g>
<!-- NavComponent -->
<g id="node22" class="node">
<title>NavComponent</title>
<polygon fill="#ffffb3" stroke="black" points="2191.16,-236.8 2086.84,-236.8 2086.84,-200.8 2191.16,-200.8 2191.16,-236.8"/>
<text text-anchor="middle" x="2139" y="-214.6" font-family="Times,serif" font-size="14.00">NavComponent</text>
</g>
<!-- NavComponent&#45;&gt;CoreModule -->
<g id="edge21" class="edge">
<title>NavComponent&#45;&gt;CoreModule</title>
<path fill="none" stroke="black" d="M2108.4,-200.69C2108.4,-190.9 2108.4,-180.8 2108.4,-180.8 2108.4,-180.8 1275.98,-180.8 1275.98,-180.8 1275.98,-180.8 1275.98,-170.91 1275.98,-170.91"/>
<polygon fill="black" stroke="black" points="1279.48,-170.91 1275.98,-160.91 1272.48,-170.91 1279.48,-170.91"/>
</g>
<!-- IconDeleteComponent -->
<g id="node27" class="node">
<title>IconDeleteComponent</title>
<polygon fill="#ffffb3" stroke="black" points="2444.24,-160.8 2301.76,-160.8 2301.76,-124.8 2444.24,-124.8 2444.24,-160.8"/>
<text text-anchor="middle" x="2373" y="-138.6" font-family="Times,serif" font-size="14.00">IconDeleteComponent</text>
</g>
<!-- IconDeleteComponent&#45;&gt;IconsModule -->
<g id="edge26" class="edge">
<title>IconDeleteComponent&#45;&gt;IconsModule</title>
<path fill="none" stroke="black" d="M2373,-124.79C2373,-102.31 2373,-66.8 2373,-66.8 2373,-66.8 2193.03,-66.8 2193.03,-66.8"/>
<polygon fill="black" stroke="black" points="2193.03,-63.3 2183.03,-66.8 2193.03,-70.3 2193.03,-63.3"/>
</g>
<!-- IconEditComponent -->
<g id="node28" class="node">
<title>IconEditComponent</title>
<polygon fill="#ffffb3" stroke="black" points="2283.54,-160.8 2154.46,-160.8 2154.46,-124.8 2283.54,-124.8 2283.54,-160.8"/>
<text text-anchor="middle" x="2219" y="-138.6" font-family="Times,serif" font-size="14.00">IconEditComponent</text>
</g>
<!-- IconEditComponent&#45;&gt;IconsModule -->
<g id="edge27" class="edge">
<title>IconEditComponent&#45;&gt;IconsModule</title>
<path fill="none" stroke="black" d="M2168.58,-124.79C2168.58,-124.79 2168.58,-94.95 2168.58,-94.95"/>
<polygon fill="black" stroke="black" points="2172.08,-94.95 2168.58,-84.95 2165.08,-94.95 2172.08,-94.95"/>
</g>
<!-- PageNotFoundComponent -->
<g id="node31" class="node">
<title>PageNotFoundComponent</title>
<polygon fill="#ffffb3" stroke="black" points="2861.83,-84.8 2696.17,-84.8 2696.17,-48.8 2861.83,-48.8 2861.83,-84.8"/>
<text text-anchor="middle" x="2779" y="-62.6" font-family="Times,serif" font-size="14.00">PageNotFoundComponent</text>
</g>
<!-- PageNotFoundModule -->
<g id="node32" class="node">
<title>PageNotFoundModule</title>
<polygon fill="#8dd3c7" stroke="black" points="2749.55,-160.8 2746.55,-164.8 2725.55,-164.8 2722.55,-160.8 2606.45,-160.8 2606.45,-124.8 2749.55,-124.8 2749.55,-160.8"/>
<text text-anchor="middle" x="2678" y="-138.6" font-family="Times,serif" font-size="14.00">PageNotFoundModule</text>
</g>
<!-- PageNotFoundComponent&#45;&gt;PageNotFoundModule -->
<g id="edge30" class="edge">
<title>PageNotFoundComponent&#45;&gt;PageNotFoundModule</title>
<path fill="none" stroke="black" d="M2723.06,-84.81C2723.06,-84.81 2723.06,-114.65 2723.06,-114.65"/>
<polygon fill="black" stroke="black" points="2719.56,-114.65 2723.06,-124.65 2726.56,-114.65 2719.56,-114.65"/>
</g>
<!-- PageNotFoundComponent  -->
<g id="node34" class="node">
<title>PageNotFoundComponent </title>
<polygon fill="#fb8072" stroke="black" points="2762.33,-236.8 2593.67,-236.8 2593.67,-200.8 2762.33,-200.8 2762.33,-236.8"/>
<text text-anchor="middle" x="2678" y="-214.6" font-family="Times,serif" font-size="14.00">PageNotFoundComponent </text>
</g>
<!-- PageNotFoundModule&#45;&gt;PageNotFoundComponent  -->
<g id="edge32" class="edge">
<title>PageNotFoundModule&#45;&gt;PageNotFoundComponent </title>
<path fill="none" stroke="black" stroke-dasharray="5,2" d="M2678,-160.81C2678,-160.81 2678,-190.65 2678,-190.65"/>
<polygon fill="black" stroke="black" points="2674.5,-190.65 2678,-200.65 2681.5,-190.65 2674.5,-190.65"/>
</g>
<!-- PageNotFoundRoutingModule -->
<g id="node33" class="node">
<title>PageNotFoundRoutingModule</title>
<polygon fill="#8dd3c7" stroke="black" points="2672.17,-84.8 2669.17,-88.8 2648.17,-88.8 2645.17,-84.8 2483.83,-84.8 2483.83,-48.8 2672.17,-48.8 2672.17,-84.8"/>
<text text-anchor="middle" x="2578" y="-62.6" font-family="Times,serif" font-size="14.00">PageNotFoundRoutingModule</text>
</g>
<!-- PageNotFoundRoutingModule&#45;&gt;PageNotFoundModule -->
<g id="edge31" class="edge">
<title>PageNotFoundRoutingModule&#45;&gt;PageNotFoundModule</title>
<path fill="none" stroke="black" d="M2639.28,-84.81C2639.28,-84.81 2639.28,-114.65 2639.28,-114.65"/>
<polygon fill="black" stroke="black" points="2635.78,-114.65 2639.28,-124.65 2642.78,-114.65 2635.78,-114.65"/>
</g>
<!-- UiComponent -->
<g id="node35" class="node">
<title>UiComponent</title>
<polygon fill="#ffffb3" stroke="black" points="1571.83,-312.8 1476.17,-312.8 1476.17,-276.8 1571.83,-276.8 1571.83,-312.8"/>
<text text-anchor="middle" x="1524" y="-290.6" font-family="Times,serif" font-size="14.00">UiComponent</text>
</g>
<!-- UiComponent&#45;&gt;UiModule -->
<g id="edge33" class="edge">
<title>UiComponent&#45;&gt;UiModule</title>
<path fill="none" stroke="black" d="M1488.77,-276.69C1488.77,-266.9 1488.77,-256.8 1488.77,-256.8 1488.77,-256.8 1220,-256.8 1220,-256.8 1220,-256.8 1220,-246.91 1220,-246.91"/>
<polygon fill="black" stroke="black" points="1223.5,-246.91 1220,-236.91 1216.5,-246.91 1223.5,-246.91"/>
</g>
</g>
</svg>
